Coordinates
version=1
nRows=11
nColumns=36
inDegrees=yes

Units are S.I. units (second, meters, Newtons, ...)
If the header above contains a line with 'inDegrees', this indicates whether rotational values are in degrees (yes) or radians (no).

endheader
time	pelvis_tilt	pelvis_list	pelvis_rotation	pelvis_tx	pelvis_ty	pelvis_tz	hip_flexion_r	hip_adduction_r	hip_rotation_r	knee_angle_r	knee_angle_r_beta	ankle_angle_r	subtalar_angle_r	mtp_angle_r	hip_flexion_l	hip_adduction_l	hip_rotation_l	knee_angle_l	knee_angle_l_beta	ankle_angle_l	subtalar_angle_l	mtp_angle_l	lumbar_extension	lumbar_bending	lumbar_rotation	arm_flex_r	arm_add_r	arm_rot_r	elbow_flex_r	pro_sup_r	arm_flex_l	arm_add_l	arm_rot_l	elbow_flex_l	pro_sup_l
      0.00000000	      5.67476786	      1.34623696	      7.12221459	      1.03629710	      0.95716211	      0.79607425	    -12.97270627	      1.85922452	      3.29682035	      5.99119312	      0.10456605	     14.30161303	     -4.55408891	     -6.67874511	     19.94651325	     -1.63571132	     -0.71575466	     30.70747914	      0.53594662	      2.68476942	    -13.65759840	     -6.67874511	    -18.76341453	     -0.47369323	      5.38122576	      2.96596504	    -12.78816660	     -1.94076109	     25.91561373	     83.52900770	      7.21222024	     -8.76170332	      3.42592044	     16.11674187	     79.80142597
      0.01666670	      5.91007112	      1.24406836	      7.04761249	      1.03534356	      0.94815154	      0.79288633	    -15.13574215	      2.18163762	      5.19544491	      6.10893145	      0.10662097	     14.56766898	     -4.10347599	     -6.73322985	     21.29048228	     -1.94749118	     -1.31234496	     27.94203751	      0.48768055	      1.06253272	    -12.98513027	     -6.73322985	    -20.06262278	     -0.38149414	      7.53550973	      0.99159984	    -13.76995249	     -4.45014565	     28.55613056	     80.83295536	      8.09695474	     -7.86876926	      2.13922022	     15.39284009	     79.28491333
      0.03333330	      5.50446351	      2.00620231	      7.14433518	      1.03543660	      0.94400888	      0.79151610	    -16.84560825	      1.46945364	      5.99392870	      5.57116874	      0.09723524	     13.16509104	     -3.87371037	     -6.72833698	     21.82229094	     -0.90995917	     -1.25808684	     22.71078180	      0.39637792	      1.55580770	    -11.01100999	     -6.72833698	    -20.04944238	     -1.00656399	      7.33880692	      1.38245333	    -13.72368435	     -4.30223390	     28.45989161	     79.41896398	      7.80694816	     -7.95503784	      1.58020187	     14.75684253	     78.19648617
      0.05000000	      4.15812572	      2.55984175	      7.17549192	      1.03734751	      0.93987231	      0.79132827	    -16.89273856	      0.74952345	      6.15338692	      5.87032960	      0.10245658	     12.60297964	     -2.83726462	     -6.72073225	     23.37797173	     -0.04035631	     -0.97736035	     17.76050321	      0.30997926	      3.31333298	     -9.34671854	     -6.72073225	    -18.80308797	     -1.69113650	      6.98812088	      1.64410586	    -13.32524943	     -4.18700383	     28.06592003	     78.15204144	      6.89137647	     -8.29460060	      0.92467503	     14.73107727	     76.87984205
      0.06666670	      2.85818726	      3.09358460	      7.14195653	      1.03934388	      0.93711480	      0.79092958	    -16.57472184	      0.13470039	      6.36858255	      6.61295911	      0.11541791	     12.75069130	     -2.07818052	     -6.84180655	     24.81356087	      0.94896306	     -0.30303272	     13.98657507	      0.24411179	      5.37762655	     -7.81883776	     -6.84180655	    -17.82255525	     -2.48717232	      6.20246564	      2.38999188	    -13.00886694	     -2.30967456	     27.49444569	     75.57929052	      5.57983895	     -8.68061677	     -0.19160645	     15.55713463	     73.85464528
      0.08333330	      1.65793430	      3.74093808	      6.81201598	      1.04093707	      0.93315055	      0.79093736	    -16.02225577	     -0.63565266	      6.91543052	      7.71006021	      0.13456594	     13.37656923	     -2.01288049	     -6.84352154	     26.20881507	      1.98818837	      0.00883173	     11.80424884	      0.20602301	      7.27271968	     -6.17922389	     -6.84352154	    -16.87818537	     -3.58650912	      6.11775546	      2.64997214	    -12.44464614	     -2.08521776	     27.38720657	     74.34314453	      4.73801205	     -9.09916243	     -0.27528843	     15.85403337	     72.65197924
      0.10000000	      0.66138216	      4.39299508	      6.30649983	      1.04187392	      0.92787085	      0.79162638	    -15.55041845	     -1.40401891	      7.30778709	      8.92394112	      0.15575215	     14.39915079	     -1.89121979	     -6.87561779	     27.42005869	      3.05244444	      0.15565910	     11.17502637	      0.19504100	      8.58472723	     -4.97793964	     -6.87561779	    -15.99621831	     -4.75678345	      6.19522695	      2.94098913	    -12.00675750	     -1.50034340	     27.29166845	     74.30546485	      3.94216944	     -9.51122860	     -0.24886452	     16.16335152	     72.52670713
      0.11666670	      0.08067748	      4.92586681	      5.59643400	      1.04216364	      0.92451224	      0.79278076	    -15.46114749	     -2.07033167	      7.78950253	     10.12390519	      0.17669548	     15.27702672	     -1.99658976	     -6.89380038	     28.09732527	      3.94515918	      0.05895792	     11.88747103	      0.20747551	      8.85946518	     -4.33886218	     -6.89380038	    -15.40602255	     -5.78804540	      6.50420101	      3.29411802	    -11.66236928	     -0.95816633	     27.37400486	     74.35240251	      3.40988507	     -9.80578599	     -0.20433544	     16.18849479	     72.51534376
      0.13333330	     -0.25502748	      5.08452281	      4.81575391	      1.04262392	      0.92296238	      0.79244447	    -15.49861003	     -2.42965854	      8.44325209	     11.41924167	      0.19930337	     15.71882086	     -2.55389533	     -6.93262295	     28.38001067	      4.39823353	     -0.28843979	     13.57216191	      0.23687891	      8.14301597	     -3.56617636	     -6.93262295	    -14.83069200	     -6.39367405	      6.93390251	      3.77287595	    -11.48075514	      0.06779631	     27.22377137	     73.99505647	      3.01805585	     -9.95720272	     -0.23853537	     15.93731213	     72.12845578
      0.15000000	     -0.42706976	      5.15310227	      3.91146882	      1.04497469	      0.92011506	      0.78890840	    -15.54892327	     -2.84426384	      9.32826458	     12.97455150	      0.22644864	     15.66000680	     -3.54240779	     -6.95428813	     28.20810337	      4.70920782	     -0.68660186	     15.44022039	      0.26948268	      6.29383724	     -3.32215512	     -6.95428813	    -14.38312744	     -6.84916493	      7.78776105	      4.08084698	    -11.40513972	      0.68765983	     27.02800486	     73.91837124	      2.67208462	     -9.98333584	     -0.37281637	     16.08505568	     72.02440103
      0.16666670	     -0.41686529	      5.25317426	      3.63696980	      1.05017101	      0.91633269	      0.78171278	    -15.89594600	     -3.34037575	      8.89110980	     14.64579795	      0.25561740	     15.70753589	     -3.52091582	     -6.96838408	     27.70373129	      5.39871770	     -0.27452329	     17.27114113	      0.30143828	      4.26530374	     -3.52477122	     -6.96838408	    -14.00317670	     -7.09231359	      8.22526232	      3.91325309	    -11.42361133	      1.04821951	     27.25218946	     74.01043333	      2.38772878	    -10.00550545	     -0.32588662	     15.95944931	     72.13475979
